<?xml version="1.0" standalone="no"?>
<!DOCTYPE svg PUBLIC "-//W3C//DTD SVG 20010904//EN"
 "http://www.w3.org/TR/2001/REC-SVG-20010904/DTD/svg10.dtd">
<svg version="1.0" xmlns="http://www.w3.org/2000/svg"
 width="100.000000pt" height="100.000000pt" viewBox="0 0 100.000000 100.000000"
 preserveAspectRatio="xMidYMid meet">

<g transform="translate(0.000000,100.000000) scale(0.100000,-0.100000)"
fill="#000000" stroke="none">
<path d="M440 876 c-257 -73 -276 -79 -309 -109 -47 -44 -51 -69 -51 -342 0
-281 3 -301 60 -330 43 -22 677 -22 720 0 58 30 61 50 58 325 l-3 250 -33 32
-32 33 -349 0 c-332 0 -348 1 -323 17 36 23 507 152 527 145 11 -5 15 -21 15
-62 0 -49 2 -55 21 -55 20 0 21 4 17 66 -5 73 -20 95 -67 93 -14 0 -127 -29
-251 -63z m393 -188 c45 -24 46 -31 47 -281 l0 -238 -25 -24 -24 -25 -331 0
-331 0 -24 25 -25 24 0 235 0 234 26 31 26 31 320 0 c223 0 326 -3 341 -12z"/>
<path d="M736 444 c-31 -30 -9 -84 34 -84 24 0 50 26 50 50 0 43 -54 65 -84
34z"/>
</g>
</svg>
